<?xml version="1.0" encoding="UTF-8"?>
<svg id="Layer_2" data-name="Layer 2" xmlns="http://www.w3.org/2000/svg" viewBox="0 0 245.73 245.67">
  <defs>
    <style>
      .cls-1 {
        fill: #fff;
        stroke-width: 0px;
      }
    </style>
  </defs>
  <g id="Layer_1-2" data-name="Layer 1">
    <g>
      <circle class="cls-1" cx="109.8" cy="135.87" r="25.63"/>
      <path class="cls-1" d="M109.8,245.67c-15.92,0-31.28-3.34-45.63-9.9-24.01-10.98-43.28-30.25-54.26-54.26C3.34,167.15,0,151.8,0,135.88,0,75.33,49.25,26.08,109.8,26.08c15.92,0,31.28,3.34,45.63,9.9l-5.94,12.99c-12.48-5.71-25.83-8.6-39.69-8.61-52.66,0-95.51,42.85-95.51,95.51,0,13.86,2.9,27.21,8.61,39.69,9.56,20.89,26.33,37.66,47.21,47.21,12.48,5.71,25.83,8.6,39.69,8.61,52.66,0,95.51-42.84,95.51-95.51,0-13.86-2.9-27.21-8.61-39.69l12.99-5.94c6.57,14.35,9.9,29.71,9.9,45.63,0,60.54-49.25,109.8-109.8,109.8Z"/>
      <path class="cls-1" d="M109.8,217.68c-11.9,0-23.37-2.5-34.1-7.43-17.8-8.17-32.1-22.47-40.27-40.27-4.93-10.72-7.43-22.2-7.43-34.1,0-45.11,36.7-81.8,81.8-81.8,11.9,0,23.38,2.5,34.1,7.43l-5.97,12.98c-8.84-4.06-18.31-6.13-28.14-6.13-37.22,0-67.51,30.29-67.51,67.51,0,9.83,2.07,19.29,6.13,28.14,6.74,14.7,18.55,26.5,33.24,33.25,8.85,4.06,18.32,6.13,28.14,6.13,37.22,0,67.51-30.29,67.51-67.51,0-9.83-2.07-19.29-6.13-28.14l12.98-5.96c4.93,10.73,7.43,22.2,7.43,34.1,0,45.11-36.7,81.8-81.8,81.8Z"/>
      <g>
        <path class="cls-1" d="M147.3,123.44c1.3,3.91,2.01,8.09,2.01,12.43,0,21.79-17.73,39.52-39.52,39.52s-39.52-17.73-39.52-39.52,17.73-39.52,39.52-39.52c4.34,0,8.52.71,12.43,2.01l10.95-10.95c-7.07-3.43-15.01-5.35-23.38-5.35-29.67,0-53.8,24.14-53.8,53.8s24.14,53.81,53.8,53.81,53.8-24.14,53.8-53.81c0-8.37-1.92-16.31-5.35-23.38l-10.95,10.95Z"/>
        <path class="cls-1" d="M245.73,32.89l-28.71-4.25-4.23-28.65-51.68,51.68,2.93,19.84-46.63,46.63,10.1,10.1,46.63-46.63,19.58,2.89,52.01-51.63ZM177.92,67.75l-1.63-11.04,26.51-26.51,1.63,11.04,10.98,1.62-26.68,26.49-10.81-1.6Z"/>
      </g>
    </g>
  </g>
</svg>