<?xml version="1.0" encoding="UTF-8"?>
<svg id="Layer_2" data-name="Layer 2" xmlns="http://www.w3.org/2000/svg" viewBox="0 0 184 184">
  <defs>
    <style>
      .cls-1 {
        fill: #fff;
        stroke-width: 0px;
      }
    </style>
  </defs>
  <g id="Layer_1-2" data-name="Layer 1">
    <g>
      <path class="cls-1" d="M168.47,1.7c7.63,0,13.83,6.2,13.83,13.83v152.94c0,7.63-6.2,13.83-13.83,13.83H15.53c-7.63,0-13.83-6.2-13.83-13.83V15.53C1.7,7.9,7.9,1.7,15.53,1.7h152.94M168.47,0H15.53C6.95,0,0,6.95,0,15.53v152.94c0,8.58,6.95,15.53,15.53,15.53h152.94c8.58,0,15.53-6.95,15.53-15.53V15.53c0-8.58-6.95-15.53-15.53-15.53h0Z"/>
      <path class="cls-1" d="M71.37,13.94c0,.92-.75,1.67-1.67,1.67s-1.67-.75-1.67-1.67.75-1.67,1.67-1.67,1.67.75,1.67,1.67h0Z"/>
      <path class="cls-1" d="M99.25,13.94c0,.92-.75,1.67-1.67,1.67s-1.67-.75-1.67-1.67.75-1.67,1.67-1.67,1.67.75,1.67,1.67h0Z"/>
      <path class="cls-1" d="M104.82,13.94c0,.92-.75,1.67-1.67,1.67s-1.67-.75-1.67-1.67.75-1.67,1.67-1.67,1.67.75,1.67,1.67h0Z"/>
      <path class="cls-1" d="M115.98,13.94c0,.92-.75,1.67-1.67,1.67s-1.67-.75-1.67-1.67.75-1.67,1.67-1.67,1.67.75,1.67,1.67h0Z"/>
      <path class="cls-1" d="M60.22,19.52c0,.92-.75,1.67-1.67,1.67s-1.67-.75-1.67-1.67.75-1.67,1.67-1.67,1.67.75,1.67,1.67h0Z"/>
      <path class="cls-1" d="M76.95,19.52c0,.92-.75,1.67-1.67,1.67s-1.67-.75-1.67-1.67.75-1.67,1.67-1.67,1.67.75,1.67,1.67h0Z"/>
      <path class="cls-1" d="M82.52,19.52c0,.92-.75,1.67-1.67,1.67s-1.67-.75-1.67-1.67.75-1.67,1.67-1.67,1.67.75,1.67,1.67h0Z"/>
      <path class="cls-1" d="M88.1,19.52c0,.92-.75,1.67-1.67,1.67s-1.67-.75-1.67-1.67.75-1.67,1.67-1.67,1.67.75,1.67,1.67h0Z"/>
      <path class="cls-1" d="M93.67,19.52c0,.92-.75,1.67-1.67,1.67s-1.67-.75-1.67-1.67.75-1.67,1.67-1.67,1.67.75,1.67,1.67h0Z"/>
      <path class="cls-1" d="M104.82,19.52c0,.92-.75,1.67-1.67,1.67s-1.67-.75-1.67-1.67.75-1.67,1.67-1.67,1.67.75,1.67,1.67h0Z"/>
      <path class="cls-1" d="M115.98,19.52c0,.92-.75,1.67-1.67,1.67s-1.67-.75-1.67-1.67.75-1.67,1.67-1.67,1.67.75,1.67,1.67h0Z"/>
      <path class="cls-1" d="M60.22,25.09c0,.92-.75,1.67-1.67,1.67s-1.67-.75-1.67-1.67.75-1.67,1.67-1.67,1.67.75,1.67,1.67h0Z"/>
      <path class="cls-1" d="M65.79,25.09c0,.92-.75,1.67-1.67,1.67s-1.67-.75-1.67-1.67.75-1.67,1.67-1.67,1.67.75,1.67,1.67h0Z"/>
      <path class="cls-1" d="M88.1,25.09c0,.92-.75,1.67-1.67,1.67s-1.67-.75-1.67-1.67.75-1.67,1.67-1.67,1.67.75,1.67,1.67h0Z"/>
      <path class="cls-1" d="M99.25,25.09c0,.92-.75,1.67-1.67,1.67s-1.67-.75-1.67-1.67.75-1.67,1.67-1.67,1.67.75,1.67,1.67h0Z"/>
      <path class="cls-1" d="M127.13,25.09c0,.92-.75,1.67-1.67,1.67s-1.67-.75-1.67-1.67.75-1.67,1.67-1.67,1.67.75,1.67,1.67h0Z"/>
      <path class="cls-1" d="M60.22,30.67c0,.92-.75,1.67-1.67,1.67s-1.67-.75-1.67-1.67.75-1.67,1.67-1.67,1.67.75,1.67,1.67h0Z"/>
      <path class="cls-1" d="M65.79,30.67c0,.92-.75,1.67-1.67,1.67s-1.67-.75-1.67-1.67.75-1.67,1.67-1.67,1.67.75,1.67,1.67h0Z"/>
      <path class="cls-1" d="M82.52,30.67c0,.92-.75,1.67-1.67,1.67s-1.67-.75-1.67-1.67.75-1.67,1.67-1.67,1.67.75,1.67,1.67h0Z"/>
      <path class="cls-1" d="M104.82,30.67c0,.92-.75,1.67-1.67,1.67s-1.67-.75-1.67-1.67.75-1.67,1.67-1.67,1.67.75,1.67,1.67h0Z"/>
      <path class="cls-1" d="M110.4,30.67c0,.92-.75,1.67-1.67,1.67s-1.67-.75-1.67-1.67.75-1.67,1.67-1.67,1.67.75,1.67,1.67h0Z"/>
      <path class="cls-1" d="M65.79,36.24c0,.92-.75,1.67-1.67,1.67s-1.67-.75-1.67-1.67.75-1.67,1.67-1.67,1.67.75,1.67,1.67h0Z"/>
      <path class="cls-1" d="M71.37,36.24c0,.92-.75,1.67-1.67,1.67s-1.67-.75-1.67-1.67.75-1.67,1.67-1.67,1.67.75,1.67,1.67h0Z"/>
      <path class="cls-1" d="M82.52,36.24c0,.92-.75,1.67-1.67,1.67s-1.67-.75-1.67-1.67.75-1.67,1.67-1.67,1.67.75,1.67,1.67h0Z"/>
      <path class="cls-1" d="M99.25,36.24c0,.92-.75,1.67-1.67,1.67s-1.67-.75-1.67-1.67.75-1.67,1.67-1.67,1.67.75,1.67,1.67h0Z"/>
      <path class="cls-1" d="M104.82,36.24c0,.92-.75,1.67-1.67,1.67s-1.67-.75-1.67-1.67.75-1.67,1.67-1.67,1.67.75,1.67,1.67h0Z"/>
      <path class="cls-1" d="M110.4,36.24c0,.92-.75,1.67-1.67,1.67s-1.67-.75-1.67-1.67.75-1.67,1.67-1.67,1.67.75,1.67,1.67h0Z"/>
      <path class="cls-1" d="M115.98,36.24c0,.92-.75,1.67-1.67,1.67s-1.67-.75-1.67-1.67.75-1.67,1.67-1.67,1.67.75,1.67,1.67h0Z"/>
      <path class="cls-1" d="M121.55,36.24c0,.92-.75,1.67-1.67,1.67s-1.67-.75-1.67-1.67.75-1.67,1.67-1.67,1.67.75,1.67,1.67h0Z"/>
      <path class="cls-1" d="M127.13,36.24c0,.92-.75,1.67-1.67,1.67s-1.67-.75-1.67-1.67.75-1.67,1.67-1.67,1.67.75,1.67,1.67h0Z"/>
      <path class="cls-1" d="M99.25,41.82c0,.92-.75,1.67-1.67,1.67s-1.67-.75-1.67-1.67.75-1.67,1.67-1.67,1.67.75,1.67,1.67h0Z"/>
      <path class="cls-1" d="M110.4,41.82c0,.92-.75,1.67-1.67,1.67s-1.67-.75-1.67-1.67.75-1.67,1.67-1.67,1.67.75,1.67,1.67h0Z"/>
      <path class="cls-1" d="M127.13,41.82c0,.92-.75,1.67-1.67,1.67s-1.67-.75-1.67-1.67.75-1.67,1.67-1.67,1.67.75,1.67,1.67h0Z"/>
      <path class="cls-1" d="M60.22,47.39c0,.92-.75,1.67-1.67,1.67s-1.67-.75-1.67-1.67.75-1.67,1.67-1.67,1.67.75,1.67,1.67h0Z"/>
      <path class="cls-1" d="M71.37,47.39c0,.92-.75,1.67-1.67,1.67s-1.67-.75-1.67-1.67.75-1.67,1.67-1.67,1.67.75,1.67,1.67h0Z"/>
      <path class="cls-1" d="M82.52,47.39c0,.92-.75,1.67-1.67,1.67s-1.67-.75-1.67-1.67.75-1.67,1.67-1.67,1.67.75,1.67,1.67h0Z"/>
      <path class="cls-1" d="M93.67,47.39c0,.92-.75,1.67-1.67,1.67s-1.67-.75-1.67-1.67.75-1.67,1.67-1.67,1.67.75,1.67,1.67h0Z"/>
      <path class="cls-1" d="M104.82,47.39c0,.92-.75,1.67-1.67,1.67s-1.67-.75-1.67-1.67.75-1.67,1.67-1.67,1.67.75,1.67,1.67h0Z"/>
      <path class="cls-1" d="M115.98,47.39c0,.92-.75,1.67-1.67,1.67s-1.67-.75-1.67-1.67.75-1.67,1.67-1.67,1.67.75,1.67,1.67h0Z"/>
      <path class="cls-1" d="M127.13,47.39c0,.92-.75,1.67-1.67,1.67s-1.67-.75-1.67-1.67.75-1.67,1.67-1.67,1.67.75,1.67,1.67h0Z"/>
      <path class="cls-1" d="M60.22,52.97c0,.92-.75,1.67-1.67,1.67s-1.67-.75-1.67-1.67.75-1.67,1.67-1.67,1.67.75,1.67,1.67h0Z"/>
      <path class="cls-1" d="M65.79,52.97c0,.92-.75,1.67-1.67,1.67s-1.67-.75-1.67-1.67.75-1.67,1.67-1.67,1.67.75,1.67,1.67h0Z"/>
      <path class="cls-1" d="M93.67,52.97c0,.92-.75,1.67-1.67,1.67s-1.67-.75-1.67-1.67.75-1.67,1.67-1.67,1.67.75,1.67,1.67h0Z"/>
      <path class="cls-1" d="M99.25,52.97c0,.92-.75,1.67-1.67,1.67s-1.67-.75-1.67-1.67.75-1.67,1.67-1.67,1.67.75,1.67,1.67h0Z"/>
      <path class="cls-1" d="M104.82,52.97c0,.92-.75,1.67-1.67,1.67s-1.67-.75-1.67-1.67.75-1.67,1.67-1.67,1.67.75,1.67,1.67h0Z"/>
      <path class="cls-1" d="M127.13,52.97c0,.92-.75,1.67-1.67,1.67s-1.67-.75-1.67-1.67.75-1.67,1.67-1.67,1.67.75,1.67,1.67h0Z"/>
      <path class="cls-1" d="M15.61,58.55c0,.92-.75,1.67-1.67,1.67s-1.67-.75-1.67-1.67.75-1.67,1.67-1.67,1.67.75,1.67,1.67h0Z"/>
      <path class="cls-1" d="M49.07,58.55c0,.92-.75,1.67-1.67,1.67s-1.67-.75-1.67-1.67.75-1.67,1.67-1.67,1.67.75,1.67,1.67h0Z"/>
      <path class="cls-1" d="M60.22,58.55c0,.92-.75,1.67-1.67,1.67s-1.67-.75-1.67-1.67.75-1.67,1.67-1.67,1.67.75,1.67,1.67h0Z"/>
      <path class="cls-1" d="M65.79,58.55c0,.92-.75,1.67-1.67,1.67s-1.67-.75-1.67-1.67.75-1.67,1.67-1.67,1.67.75,1.67,1.67h0Z"/>
      <path class="cls-1" d="M82.52,58.55c0,.92-.75,1.67-1.67,1.67s-1.67-.75-1.67-1.67.75-1.67,1.67-1.67,1.67.75,1.67,1.67h0Z"/>
      <path class="cls-1" d="M110.4,58.55c0,.92-.75,1.67-1.67,1.67s-1.67-.75-1.67-1.67.75-1.67,1.67-1.67,1.67.75,1.67,1.67h0Z"/>
      <path class="cls-1" d="M127.13,58.55c0,.92-.75,1.67-1.67,1.67s-1.67-.75-1.67-1.67.75-1.67,1.67-1.67,1.67.75,1.67,1.67h0Z"/>
      <path class="cls-1" d="M132.7,58.55c0,.92-.75,1.67-1.67,1.67s-1.67-.75-1.67-1.67.75-1.67,1.67-1.67,1.67.75,1.67,1.67h0Z"/>
      <path class="cls-1" d="M138.28,58.55c0,.92-.75,1.67-1.67,1.67s-1.67-.75-1.67-1.67.75-1.67,1.67-1.67,1.67.75,1.67,1.67h0Z"/>
      <path class="cls-1" d="M155.01,58.55c0,.92-.75,1.67-1.67,1.67s-1.67-.75-1.67-1.67.75-1.67,1.67-1.67,1.67.75,1.67,1.67h0Z"/>
      <path class="cls-1" d="M160.58,58.55c0,.92-.75,1.67-1.67,1.67s-1.67-.75-1.67-1.67.75-1.67,1.67-1.67,1.67.75,1.67,1.67h0Z"/>
      <path class="cls-1" d="M166.16,58.55c0,.92-.75,1.67-1.67,1.67s-1.67-.75-1.67-1.67.75-1.67,1.67-1.67,1.67.75,1.67,1.67h0Z"/>
      <path class="cls-1" d="M26.76,64.12c0,.92-.75,1.67-1.67,1.67s-1.67-.75-1.67-1.67.75-1.67,1.67-1.67,1.67.75,1.67,1.67h0Z"/>
      <path class="cls-1" d="M32.34,64.12c0,.92-.75,1.67-1.67,1.67s-1.67-.75-1.67-1.67.75-1.67,1.67-1.67,1.67.75,1.67,1.67h0Z"/>
      <path class="cls-1" d="M37.92,64.12c0,.92-.75,1.67-1.67,1.67s-1.67-.75-1.67-1.67.75-1.67,1.67-1.67,1.67.75,1.67,1.67h0Z"/>
      <path class="cls-1" d="M60.22,64.12c0,.92-.75,1.67-1.67,1.67s-1.67-.75-1.67-1.67.75-1.67,1.67-1.67,1.67.75,1.67,1.67h0Z"/>
      <path class="cls-1" d="M65.79,64.12c0,.92-.75,1.67-1.67,1.67s-1.67-.75-1.67-1.67.75-1.67,1.67-1.67,1.67.75,1.67,1.67h0Z"/>
      <path class="cls-1" d="M76.95,64.12c0,.92-.75,1.67-1.67,1.67s-1.67-.75-1.67-1.67.75-1.67,1.67-1.67,1.67.75,1.67,1.67h0Z"/>
      <path class="cls-1" d="M82.52,64.12c0,.92-.75,1.67-1.67,1.67s-1.67-.75-1.67-1.67.75-1.67,1.67-1.67,1.67.75,1.67,1.67h0Z"/>
      <path class="cls-1" d="M88.1,64.12c0,.92-.75,1.67-1.67,1.67s-1.67-.75-1.67-1.67.75-1.67,1.67-1.67,1.67.75,1.67,1.67h0Z"/>
      <path class="cls-1" d="M104.82,64.12c0,.92-.75,1.67-1.67,1.67s-1.67-.75-1.67-1.67.75-1.67,1.67-1.67,1.67.75,1.67,1.67h0Z"/>
      <path class="cls-1" d="M110.4,64.12c0,.92-.75,1.67-1.67,1.67s-1.67-.75-1.67-1.67.75-1.67,1.67-1.67,1.67.75,1.67,1.67h0Z"/>
      <path class="cls-1" d="M115.98,64.12c0,.92-.75,1.67-1.67,1.67s-1.67-.75-1.67-1.67.75-1.67,1.67-1.67,1.67.75,1.67,1.67h0Z"/>
      <path class="cls-1" d="M121.55,64.12c0,.92-.75,1.67-1.67,1.67s-1.67-.75-1.67-1.67.75-1.67,1.67-1.67,1.67.75,1.67,1.67h0Z"/>
      <path class="cls-1" d="M132.7,64.12c0,.92-.75,1.67-1.67,1.67s-1.67-.75-1.67-1.67.75-1.67,1.67-1.67,1.67.75,1.67,1.67h0Z"/>
      <path class="cls-1" d="M143.85,64.12c0,.92-.75,1.67-1.67,1.67s-1.67-.75-1.67-1.67.75-1.67,1.67-1.67,1.67.75,1.67,1.67h0Z"/>
      <path class="cls-1" d="M149.43,64.12c0,.92-.75,1.67-1.67,1.67s-1.67-.75-1.67-1.67.75-1.67,1.67-1.67,1.67.75,1.67,1.67h0Z"/>
      <path class="cls-1" d="M160.58,64.12c0,.92-.75,1.67-1.67,1.67s-1.67-.75-1.67-1.67.75-1.67,1.67-1.67,1.67.75,1.67,1.67h0Z"/>
      <path class="cls-1" d="M166.16,64.12c0,.92-.75,1.67-1.67,1.67s-1.67-.75-1.67-1.67.75-1.67,1.67-1.67,1.67.75,1.67,1.67h0Z"/>
      <path class="cls-1" d="M26.76,69.7c0,.92-.75,1.67-1.67,1.67s-1.67-.75-1.67-1.67.75-1.67,1.67-1.67,1.67.75,1.67,1.67h0Z"/>
      <path class="cls-1" d="M37.92,69.7c0,.92-.75,1.67-1.67,1.67s-1.67-.75-1.67-1.67.75-1.67,1.67-1.67,1.67.75,1.67,1.67h0Z"/>
      <path class="cls-1" d="M49.07,69.7c0,.92-.75,1.67-1.67,1.67s-1.67-.75-1.67-1.67.75-1.67,1.67-1.67,1.67.75,1.67,1.67h0Z"/>
      <path class="cls-1" d="M60.22,69.7c0,.92-.75,1.67-1.67,1.67s-1.67-.75-1.67-1.67.75-1.67,1.67-1.67,1.67.75,1.67,1.67h0Z"/>
      <path class="cls-1" d="M76.95,69.7c0,.92-.75,1.67-1.67,1.67s-1.67-.75-1.67-1.67.75-1.67,1.67-1.67,1.67.75,1.67,1.67h0Z"/>
      <path class="cls-1" d="M88.1,69.7c0,.92-.75,1.67-1.67,1.67s-1.67-.75-1.67-1.67.75-1.67,1.67-1.67,1.67.75,1.67,1.67h0Z"/>
      <path class="cls-1" d="M93.67,69.7c0,.92-.75,1.67-1.67,1.67s-1.67-.75-1.67-1.67.75-1.67,1.67-1.67,1.67.75,1.67,1.67h0Z"/>
      <path class="cls-1" d="M99.25,69.7c0,.92-.75,1.67-1.67,1.67s-1.67-.75-1.67-1.67.75-1.67,1.67-1.67,1.67.75,1.67,1.67h0Z"/>
      <path class="cls-1" d="M104.82,69.7c0,.92-.75,1.67-1.67,1.67s-1.67-.75-1.67-1.67.75-1.67,1.67-1.67,1.67.75,1.67,1.67h0Z"/>
      <path class="cls-1" d="M110.4,69.7c0,.92-.75,1.67-1.67,1.67s-1.67-.75-1.67-1.67.75-1.67,1.67-1.67,1.67.75,1.67,1.67h0Z"/>
      <path class="cls-1" d="M132.7,69.7c0,.92-.75,1.67-1.67,1.67s-1.67-.75-1.67-1.67.75-1.67,1.67-1.67,1.67.75,1.67,1.67h0Z"/>
      <path class="cls-1" d="M143.85,69.7c0,.92-.75,1.67-1.67,1.67s-1.67-.75-1.67-1.67.75-1.67,1.67-1.67,1.67.75,1.67,1.67h0Z"/>
      <path class="cls-1" d="M15.61,75.27c0,.92-.75,1.67-1.67,1.67s-1.67-.75-1.67-1.67.75-1.67,1.67-1.67,1.67.75,1.67,1.67h0Z"/>
      <path class="cls-1" d="M21.19,75.27c0,.92-.75,1.67-1.67,1.67s-1.67-.75-1.67-1.67.75-1.67,1.67-1.67,1.67.75,1.67,1.67h0Z"/>
      <path class="cls-1" d="M26.76,75.27c0,.92-.75,1.67-1.67,1.67s-1.67-.75-1.67-1.67.75-1.67,1.67-1.67,1.67.75,1.67,1.67h0Z"/>
      <path class="cls-1" d="M65.79,75.27c0,.92-.75,1.67-1.67,1.67s-1.67-.75-1.67-1.67.75-1.67,1.67-1.67,1.67.75,1.67,1.67h0Z"/>
      <path class="cls-1" d="M76.95,75.27c0,.92-.75,1.67-1.67,1.67s-1.67-.75-1.67-1.67.75-1.67,1.67-1.67,1.67.75,1.67,1.67h0Z"/>
      <path class="cls-1" d="M82.52,75.27c0,.92-.75,1.67-1.67,1.67s-1.67-.75-1.67-1.67.75-1.67,1.67-1.67,1.67.75,1.67,1.67h0Z"/>
      <path class="cls-1" d="M88.1,75.27c0,.92-.75,1.67-1.67,1.67s-1.67-.75-1.67-1.67.75-1.67,1.67-1.67,1.67.75,1.67,1.67h0Z"/>
      <path class="cls-1" d="M99.25,75.27c0,.92-.75,1.67-1.67,1.67s-1.67-.75-1.67-1.67.75-1.67,1.67-1.67,1.67.75,1.67,1.67h0Z"/>
      <path class="cls-1" d="M104.82,75.27c0,.92-.75,1.67-1.67,1.67s-1.67-.75-1.67-1.67.75-1.67,1.67-1.67,1.67.75,1.67,1.67h0Z"/>
      <path class="cls-1" d="M115.98,75.27c0,.92-.75,1.67-1.67,1.67s-1.67-.75-1.67-1.67.75-1.67,1.67-1.67,1.67.75,1.67,1.67h0Z"/>
      <path class="cls-1" d="M127.13,75.27c0,.92-.75,1.67-1.67,1.67s-1.67-.75-1.67-1.67.75-1.67,1.67-1.67,1.67.75,1.67,1.67h0Z"/>
      <path class="cls-1" d="M149.43,75.27c0,.92-.75,1.67-1.67,1.67s-1.67-.75-1.67-1.67.75-1.67,1.67-1.67,1.67.75,1.67,1.67h0Z"/>
      <path class="cls-1" d="M49.07,80.85c0,.92-.75,1.67-1.67,1.67s-1.67-.75-1.67-1.67.75-1.67,1.67-1.67,1.67.75,1.67,1.67h0Z"/>
      <path class="cls-1" d="M65.79,80.85c0,.92-.75,1.67-1.67,1.67s-1.67-.75-1.67-1.67.75-1.67,1.67-1.67,1.67.75,1.67,1.67h0Z"/>
      <path class="cls-1" d="M88.1,80.85c0,.92-.75,1.67-1.67,1.67s-1.67-.75-1.67-1.67.75-1.67,1.67-1.67,1.67.75,1.67,1.67h0Z"/>
      <path class="cls-1" d="M104.82,80.85c0,.92-.75,1.67-1.67,1.67s-1.67-.75-1.67-1.67.75-1.67,1.67-1.67,1.67.75,1.67,1.67h0Z"/>
      <path class="cls-1" d="M127.13,80.85c0,.92-.75,1.67-1.67,1.67s-1.67-.75-1.67-1.67.75-1.67,1.67-1.67,1.67.75,1.67,1.67h0Z"/>
      <path class="cls-1" d="M138.28,80.85c0,.92-.75,1.67-1.67,1.67s-1.67-.75-1.67-1.67.75-1.67,1.67-1.67,1.67.75,1.67,1.67h0Z"/>
      <path class="cls-1" d="M171.73,80.85c0,.92-.75,1.67-1.67,1.67s-1.67-.75-1.67-1.67.75-1.67,1.67-1.67,1.67.75,1.67,1.67h0Z"/>
      <path class="cls-1" d="M15.61,86.42c0,.92-.75,1.67-1.67,1.67s-1.67-.75-1.67-1.67.75-1.67,1.67-1.67,1.67.75,1.67,1.67h0Z"/>
      <path class="cls-1" d="M32.34,86.42c0,.92-.75,1.67-1.67,1.67s-1.67-.75-1.67-1.67.75-1.67,1.67-1.67,1.67.75,1.67,1.67h0Z"/>
      <path class="cls-1" d="M54.64,86.42c0,.92-.75,1.67-1.67,1.67s-1.67-.75-1.67-1.67.75-1.67,1.67-1.67,1.67.75,1.67,1.67h0Z"/>
      <path class="cls-1" d="M82.52,86.42c0,.92-.75,1.67-1.67,1.67s-1.67-.75-1.67-1.67.75-1.67,1.67-1.67,1.67.75,1.67,1.67h0Z"/>
      <path class="cls-1" d="M99.25,86.42c0,.92-.75,1.67-1.67,1.67s-1.67-.75-1.67-1.67.75-1.67,1.67-1.67,1.67.75,1.67,1.67h0Z"/>
      <path class="cls-1" d="M121.55,86.42c0,.92-.75,1.67-1.67,1.67s-1.67-.75-1.67-1.67.75-1.67,1.67-1.67,1.67.75,1.67,1.67h0Z"/>
      <path class="cls-1" d="M127.13,86.42c0,.92-.75,1.67-1.67,1.67s-1.67-.75-1.67-1.67.75-1.67,1.67-1.67,1.67.75,1.67,1.67h0Z"/>
      <path class="cls-1" d="M138.28,86.42c0,.92-.75,1.67-1.67,1.67s-1.67-.75-1.67-1.67.75-1.67,1.67-1.67,1.67.75,1.67,1.67h0Z"/>
      <path class="cls-1" d="M143.85,86.42c0,.92-.75,1.67-1.67,1.67s-1.67-.75-1.67-1.67.75-1.67,1.67-1.67,1.67.75,1.67,1.67h0Z"/>
      <path class="cls-1" d="M149.43,86.42c0,.92-.75,1.67-1.67,1.67s-1.67-.75-1.67-1.67.75-1.67,1.67-1.67,1.67.75,1.67,1.67h0Z"/>
      <path class="cls-1" d="M160.58,86.42c0,.92-.75,1.67-1.67,1.67s-1.67-.75-1.67-1.67.75-1.67,1.67-1.67,1.67.75,1.67,1.67h0Z"/>
      <path class="cls-1" d="M166.16,86.42c0,.92-.75,1.67-1.67,1.67s-1.67-.75-1.67-1.67.75-1.67,1.67-1.67,1.67.75,1.67,1.67h0Z"/>
      <path class="cls-1" d="M171.73,86.42c0,.92-.75,1.67-1.67,1.67s-1.67-.75-1.67-1.67.75-1.67,1.67-1.67,1.67.75,1.67,1.67h0Z"/>
      <path class="cls-1" d="M32.34,92c0,.92-.75,1.67-1.67,1.67s-1.67-.75-1.67-1.67.75-1.67,1.67-1.67,1.67.75,1.67,1.67h0Z"/>
      <path class="cls-1" d="M43.49,92c0,.92-.75,1.67-1.67,1.67s-1.67-.75-1.67-1.67.75-1.67,1.67-1.67,1.67.75,1.67,1.67h0Z"/>
      <path class="cls-1" d="M49.07,92c0,.92-.75,1.67-1.67,1.67s-1.67-.75-1.67-1.67.75-1.67,1.67-1.67,1.67.75,1.67,1.67h0Z"/>
      <path class="cls-1" d="M65.79,92c0,.92-.75,1.67-1.67,1.67s-1.67-.75-1.67-1.67.75-1.67,1.67-1.67,1.67.75,1.67,1.67h0Z"/>
      <path class="cls-1" d="M71.37,92c0,.92-.75,1.67-1.67,1.67s-1.67-.75-1.67-1.67.75-1.67,1.67-1.67,1.67.75,1.67,1.67h0Z"/>
      <path class="cls-1" d="M82.52,92c0,.92-.75,1.67-1.67,1.67s-1.67-.75-1.67-1.67.75-1.67,1.67-1.67,1.67.75,1.67,1.67h0Z"/>
      <path class="cls-1" d="M99.25,92c0,.92-.75,1.67-1.67,1.67s-1.67-.75-1.67-1.67.75-1.67,1.67-1.67,1.67.75,1.67,1.67h0Z"/>
      <path class="cls-1" d="M104.82,92c0,.92-.75,1.67-1.67,1.67s-1.67-.75-1.67-1.67.75-1.67,1.67-1.67,1.67.75,1.67,1.67h0Z"/>
      <path class="cls-1" d="M110.4,92c0,.92-.75,1.67-1.67,1.67s-1.67-.75-1.67-1.67.75-1.67,1.67-1.67,1.67.75,1.67,1.67h0Z"/>
      <path class="cls-1" d="M115.98,92c0,.92-.75,1.67-1.67,1.67s-1.67-.75-1.67-1.67.75-1.67,1.67-1.67,1.67.75,1.67,1.67h0Z"/>
      <path class="cls-1" d="M127.13,92c0,.92-.75,1.67-1.67,1.67s-1.67-.75-1.67-1.67.75-1.67,1.67-1.67,1.67.75,1.67,1.67h0Z"/>
      <path class="cls-1" d="M132.7,92c0,.92-.75,1.67-1.67,1.67s-1.67-.75-1.67-1.67.75-1.67,1.67-1.67,1.67.75,1.67,1.67h0Z"/>
      <path class="cls-1" d="M160.58,92c0,.92-.75,1.67-1.67,1.67s-1.67-.75-1.67-1.67.75-1.67,1.67-1.67,1.67.75,1.67,1.67h0Z"/>
      <path class="cls-1" d="M21.19,97.58c0,.92-.75,1.67-1.67,1.67s-1.67-.75-1.67-1.67.75-1.67,1.67-1.67,1.67.75,1.67,1.67h0Z"/>
      <path class="cls-1" d="M26.76,97.58c0,.92-.75,1.67-1.67,1.67s-1.67-.75-1.67-1.67.75-1.67,1.67-1.67,1.67.75,1.67,1.67h0Z"/>
      <path class="cls-1" d="M32.34,97.58c0,.92-.75,1.67-1.67,1.67s-1.67-.75-1.67-1.67.75-1.67,1.67-1.67,1.67.75,1.67,1.67h0Z"/>
      <path class="cls-1" d="M54.64,97.58c0,.92-.75,1.67-1.67,1.67s-1.67-.75-1.67-1.67.75-1.67,1.67-1.67,1.67.75,1.67,1.67h0Z"/>
      <path class="cls-1" d="M76.95,97.58c0,.92-.75,1.67-1.67,1.67s-1.67-.75-1.67-1.67.75-1.67,1.67-1.67,1.67.75,1.67,1.67h0Z"/>
      <path class="cls-1" d="M104.82,97.58c0,.92-.75,1.67-1.67,1.67s-1.67-.75-1.67-1.67.75-1.67,1.67-1.67,1.67.75,1.67,1.67h0Z"/>
      <path class="cls-1" d="M121.55,97.58c0,.92-.75,1.67-1.67,1.67s-1.67-.75-1.67-1.67.75-1.67,1.67-1.67,1.67.75,1.67,1.67h0Z"/>
      <path class="cls-1" d="M132.7,97.58c0,.92-.75,1.67-1.67,1.67s-1.67-.75-1.67-1.67.75-1.67,1.67-1.67,1.67.75,1.67,1.67h0Z"/>
      <path class="cls-1" d="M138.28,97.58c0,.92-.75,1.67-1.67,1.67s-1.67-.75-1.67-1.67.75-1.67,1.67-1.67,1.67.75,1.67,1.67h0Z"/>
      <path class="cls-1" d="M143.85,97.58c0,.92-.75,1.67-1.67,1.67s-1.67-.75-1.67-1.67.75-1.67,1.67-1.67,1.67.75,1.67,1.67h0Z"/>
      <path class="cls-1" d="M160.58,97.58c0,.92-.75,1.67-1.67,1.67s-1.67-.75-1.67-1.67.75-1.67,1.67-1.67,1.67.75,1.67,1.67h0Z"/>
      <path class="cls-1" d="M171.73,97.58c0,.92-.75,1.67-1.67,1.67s-1.67-.75-1.67-1.67.75-1.67,1.67-1.67,1.67.75,1.67,1.67h0Z"/>
      <path class="cls-1" d="M21.19,103.15c0,.92-.75,1.67-1.67,1.67s-1.67-.75-1.67-1.67.75-1.67,1.67-1.67,1.67.75,1.67,1.67h0Z"/>
      <path class="cls-1" d="M49.07,103.15c0,.92-.75,1.67-1.67,1.67s-1.67-.75-1.67-1.67.75-1.67,1.67-1.67,1.67.75,1.67,1.67h0Z"/>
      <path class="cls-1" d="M60.22,103.15c0,.92-.75,1.67-1.67,1.67s-1.67-.75-1.67-1.67.75-1.67,1.67-1.67,1.67.75,1.67,1.67h0Z"/>
      <path class="cls-1" d="M65.79,103.15c0,.92-.75,1.67-1.67,1.67s-1.67-.75-1.67-1.67.75-1.67,1.67-1.67,1.67.75,1.67,1.67h0Z"/>
      <path class="cls-1" d="M71.37,103.15c0,.92-.75,1.67-1.67,1.67s-1.67-.75-1.67-1.67.75-1.67,1.67-1.67,1.67.75,1.67,1.67h0Z"/>
      <path class="cls-1" d="M76.95,103.15c0,.92-.75,1.67-1.67,1.67s-1.67-.75-1.67-1.67.75-1.67,1.67-1.67,1.67.75,1.67,1.67h0Z"/>
      <path class="cls-1" d="M82.52,103.15c0,.92-.75,1.67-1.67,1.67s-1.67-.75-1.67-1.67.75-1.67,1.67-1.67,1.67.75,1.67,1.67h0Z"/>
      <path class="cls-1" d="M99.25,103.15c0,.92-.75,1.67-1.67,1.67s-1.67-.75-1.67-1.67.75-1.67,1.67-1.67,1.67.75,1.67,1.67h0Z"/>
      <path class="cls-1" d="M110.4,103.15c0,.92-.75,1.67-1.67,1.67s-1.67-.75-1.67-1.67.75-1.67,1.67-1.67,1.67.75,1.67,1.67h0Z"/>
      <path class="cls-1" d="M115.98,103.15c0,.92-.75,1.67-1.67,1.67s-1.67-.75-1.67-1.67.75-1.67,1.67-1.67,1.67.75,1.67,1.67h0Z"/>
      <path class="cls-1" d="M121.55,103.15c0,.92-.75,1.67-1.67,1.67s-1.67-.75-1.67-1.67.75-1.67,1.67-1.67,1.67.75,1.67,1.67h0Z"/>
      <path class="cls-1" d="M160.58,103.15c0,.92-.75,1.67-1.67,1.67s-1.67-.75-1.67-1.67.75-1.67,1.67-1.67,1.67.75,1.67,1.67h0Z"/>
      <path class="cls-1" d="M15.61,108.73c0,.92-.75,1.67-1.67,1.67s-1.67-.75-1.67-1.67.75-1.67,1.67-1.67,1.67.75,1.67,1.67h0Z"/>
      <path class="cls-1" d="M21.19,108.73c0,.92-.75,1.67-1.67,1.67s-1.67-.75-1.67-1.67.75-1.67,1.67-1.67,1.67.75,1.67,1.67h0Z"/>
      <path class="cls-1" d="M32.34,108.73c0,.92-.75,1.67-1.67,1.67s-1.67-.75-1.67-1.67.75-1.67,1.67-1.67,1.67.75,1.67,1.67h0Z"/>
      <path class="cls-1" d="M37.92,108.73c0,.92-.75,1.67-1.67,1.67s-1.67-.75-1.67-1.67.75-1.67,1.67-1.67,1.67.75,1.67,1.67h0Z"/>
      <path class="cls-1" d="M43.49,108.73c0,.92-.75,1.67-1.67,1.67s-1.67-.75-1.67-1.67.75-1.67,1.67-1.67,1.67.75,1.67,1.67h0Z"/>
      <path class="cls-1" d="M54.64,108.73c0,.92-.75,1.67-1.67,1.67s-1.67-.75-1.67-1.67.75-1.67,1.67-1.67,1.67.75,1.67,1.67h0Z"/>
      <path class="cls-1" d="M60.22,108.73c0,.92-.75,1.67-1.67,1.67s-1.67-.75-1.67-1.67.75-1.67,1.67-1.67,1.67.75,1.67,1.67h0Z"/>
      <path class="cls-1" d="M65.79,108.73c0,.92-.75,1.67-1.67,1.67s-1.67-.75-1.67-1.67.75-1.67,1.67-1.67,1.67.75,1.67,1.67h0Z"/>
      <path class="cls-1" d="M88.1,108.73c0,.92-.75,1.67-1.67,1.67s-1.67-.75-1.67-1.67.75-1.67,1.67-1.67,1.67.75,1.67,1.67h0Z"/>
      <path class="cls-1" d="M93.67,108.73c0,.92-.75,1.67-1.67,1.67s-1.67-.75-1.67-1.67.75-1.67,1.67-1.67,1.67.75,1.67,1.67h0Z"/>
      <path class="cls-1" d="M99.25,108.73c0,.92-.75,1.67-1.67,1.67s-1.67-.75-1.67-1.67.75-1.67,1.67-1.67,1.67.75,1.67,1.67h0Z"/>
      <path class="cls-1" d="M104.82,108.73c0,.92-.75,1.67-1.67,1.67s-1.67-.75-1.67-1.67.75-1.67,1.67-1.67,1.67.75,1.67,1.67h0Z"/>
      <path class="cls-1" d="M110.4,108.73c0,.92-.75,1.67-1.67,1.67s-1.67-.75-1.67-1.67.75-1.67,1.67-1.67,1.67.75,1.67,1.67h0Z"/>
      <path class="cls-1" d="M115.98,108.73c0,.92-.75,1.67-1.67,1.67s-1.67-.75-1.67-1.67.75-1.67,1.67-1.67,1.67.75,1.67,1.67h0Z"/>
      <path class="cls-1" d="M121.55,108.73c0,.92-.75,1.67-1.67,1.67s-1.67-.75-1.67-1.67.75-1.67,1.67-1.67,1.67.75,1.67,1.67h0Z"/>
      <path class="cls-1" d="M127.13,108.73c0,.92-.75,1.67-1.67,1.67s-1.67-.75-1.67-1.67.75-1.67,1.67-1.67,1.67.75,1.67,1.67h0Z"/>
      <path class="cls-1" d="M138.28,108.73c0,.92-.75,1.67-1.67,1.67s-1.67-.75-1.67-1.67.75-1.67,1.67-1.67,1.67.75,1.67,1.67h0Z"/>
      <path class="cls-1" d="M149.43,108.73c0,.92-.75,1.67-1.67,1.67s-1.67-.75-1.67-1.67.75-1.67,1.67-1.67,1.67.75,1.67,1.67h0Z"/>
      <path class="cls-1" d="M155.01,108.73c0,.92-.75,1.67-1.67,1.67s-1.67-.75-1.67-1.67.75-1.67,1.67-1.67,1.67.75,1.67,1.67h0Z"/>
      <path class="cls-1" d="M160.58,108.73c0,.92-.75,1.67-1.67,1.67s-1.67-.75-1.67-1.67.75-1.67,1.67-1.67,1.67.75,1.67,1.67h0Z"/>
      <path class="cls-1" d="M166.16,108.73c0,.92-.75,1.67-1.67,1.67s-1.67-.75-1.67-1.67.75-1.67,1.67-1.67,1.67.75,1.67,1.67h0Z"/>
      <path class="cls-1" d="M171.73,108.73c0,.92-.75,1.67-1.67,1.67s-1.67-.75-1.67-1.67.75-1.67,1.67-1.67,1.67.75,1.67,1.67h0Z"/>
      <path class="cls-1" d="M15.61,114.3c0,.92-.75,1.67-1.67,1.67s-1.67-.75-1.67-1.67.75-1.67,1.67-1.67,1.67.75,1.67,1.67h0Z"/>
      <path class="cls-1" d="M21.19,114.3c0,.92-.75,1.67-1.67,1.67s-1.67-.75-1.67-1.67.75-1.67,1.67-1.67,1.67.75,1.67,1.67h0Z"/>
      <path class="cls-1" d="M26.76,114.3c0,.92-.75,1.67-1.67,1.67s-1.67-.75-1.67-1.67.75-1.67,1.67-1.67,1.67.75,1.67,1.67h0Z"/>
      <path class="cls-1" d="M32.34,114.3c0,.92-.75,1.67-1.67,1.67s-1.67-.75-1.67-1.67.75-1.67,1.67-1.67,1.67.75,1.67,1.67h0Z"/>
      <path class="cls-1" d="M43.49,114.3c0,.92-.75,1.67-1.67,1.67s-1.67-.75-1.67-1.67.75-1.67,1.67-1.67,1.67.75,1.67,1.67h0Z"/>
      <path class="cls-1" d="M49.07,114.3c0,.92-.75,1.67-1.67,1.67s-1.67-.75-1.67-1.67.75-1.67,1.67-1.67,1.67.75,1.67,1.67h0Z"/>
      <path class="cls-1" d="M60.22,114.3c0,.92-.75,1.67-1.67,1.67s-1.67-.75-1.67-1.67.75-1.67,1.67-1.67,1.67.75,1.67,1.67h0Z"/>
      <path class="cls-1" d="M76.95,114.3c0,.92-.75,1.67-1.67,1.67s-1.67-.75-1.67-1.67.75-1.67,1.67-1.67,1.67.75,1.67,1.67h0Z"/>
      <path class="cls-1" d="M82.52,114.3c0,.92-.75,1.67-1.67,1.67s-1.67-.75-1.67-1.67.75-1.67,1.67-1.67,1.67.75,1.67,1.67h0Z"/>
      <path class="cls-1" d="M99.25,114.3c0,.92-.75,1.67-1.67,1.67s-1.67-.75-1.67-1.67.75-1.67,1.67-1.67,1.67.75,1.67,1.67h0Z"/>
      <path class="cls-1" d="M121.55,114.3c0,.92-.75,1.67-1.67,1.67s-1.67-.75-1.67-1.67.75-1.67,1.67-1.67,1.67.75,1.67,1.67h0Z"/>
      <path class="cls-1" d="M132.7,114.3c0,.92-.75,1.67-1.67,1.67s-1.67-.75-1.67-1.67.75-1.67,1.67-1.67,1.67.75,1.67,1.67h0Z"/>
      <path class="cls-1" d="M138.28,114.3c0,.92-.75,1.67-1.67,1.67s-1.67-.75-1.67-1.67.75-1.67,1.67-1.67,1.67.75,1.67,1.67h0Z"/>
      <path class="cls-1" d="M171.73,114.3c0,.92-.75,1.67-1.67,1.67s-1.67-.75-1.67-1.67.75-1.67,1.67-1.67,1.67.75,1.67,1.67h0Z"/>
      <path class="cls-1" d="M15.61,119.88c0,.92-.75,1.67-1.67,1.67s-1.67-.75-1.67-1.67.75-1.67,1.67-1.67,1.67.75,1.67,1.67h0Z"/>
      <path class="cls-1" d="M26.76,119.88c0,.92-.75,1.67-1.67,1.67s-1.67-.75-1.67-1.67.75-1.67,1.67-1.67,1.67.75,1.67,1.67h0Z"/>
      <path class="cls-1" d="M60.22,119.88c0,.92-.75,1.67-1.67,1.67s-1.67-.75-1.67-1.67.75-1.67,1.67-1.67,1.67.75,1.67,1.67h0Z"/>
      <path class="cls-1" d="M71.37,119.88c0,.92-.75,1.67-1.67,1.67s-1.67-.75-1.67-1.67.75-1.67,1.67-1.67,1.67.75,1.67,1.67h0Z"/>
      <path class="cls-1" d="M82.52,119.88c0,.92-.75,1.67-1.67,1.67s-1.67-.75-1.67-1.67.75-1.67,1.67-1.67,1.67.75,1.67,1.67h0Z"/>
      <path class="cls-1" d="M88.1,119.88c0,.92-.75,1.67-1.67,1.67s-1.67-.75-1.67-1.67.75-1.67,1.67-1.67,1.67.75,1.67,1.67h0Z"/>
      <path class="cls-1" d="M99.25,119.88c0,.92-.75,1.67-1.67,1.67s-1.67-.75-1.67-1.67.75-1.67,1.67-1.67,1.67.75,1.67,1.67h0Z"/>
      <path class="cls-1" d="M115.98,119.88c0,.92-.75,1.67-1.67,1.67s-1.67-.75-1.67-1.67.75-1.67,1.67-1.67,1.67.75,1.67,1.67h0Z"/>
      <path class="cls-1" d="M121.55,119.88c0,.92-.75,1.67-1.67,1.67s-1.67-.75-1.67-1.67.75-1.67,1.67-1.67,1.67.75,1.67,1.67h0Z"/>
      <path class="cls-1" d="M132.7,119.88c0,.92-.75,1.67-1.67,1.67s-1.67-.75-1.67-1.67.75-1.67,1.67-1.67,1.67.75,1.67,1.67h0Z"/>
      <path class="cls-1" d="M138.28,119.88c0,.92-.75,1.67-1.67,1.67s-1.67-.75-1.67-1.67.75-1.67,1.67-1.67,1.67.75,1.67,1.67h0Z"/>
      <path class="cls-1" d="M143.85,119.88c0,.92-.75,1.67-1.67,1.67s-1.67-.75-1.67-1.67.75-1.67,1.67-1.67,1.67.75,1.67,1.67h0Z"/>
      <path class="cls-1" d="M149.43,119.88c0,.92-.75,1.67-1.67,1.67s-1.67-.75-1.67-1.67.75-1.67,1.67-1.67,1.67.75,1.67,1.67h0Z"/>
      <path class="cls-1" d="M15.61,125.45c0,.92-.75,1.67-1.67,1.67s-1.67-.75-1.67-1.67.75-1.67,1.67-1.67,1.67.75,1.67,1.67h0Z"/>
      <path class="cls-1" d="M32.34,125.45c0,.92-.75,1.67-1.67,1.67s-1.67-.75-1.67-1.67.75-1.67,1.67-1.67,1.67.75,1.67,1.67h0Z"/>
      <path class="cls-1" d="M49.07,125.45c0,.92-.75,1.67-1.67,1.67s-1.67-.75-1.67-1.67.75-1.67,1.67-1.67,1.67.75,1.67,1.67h0Z"/>
      <path class="cls-1" d="M54.64,125.45c0,.92-.75,1.67-1.67,1.67s-1.67-.75-1.67-1.67.75-1.67,1.67-1.67,1.67.75,1.67,1.67h0Z"/>
      <path class="cls-1" d="M60.22,125.45c0,.92-.75,1.67-1.67,1.67s-1.67-.75-1.67-1.67.75-1.67,1.67-1.67,1.67.75,1.67,1.67h0Z"/>
      <path class="cls-1" d="M65.79,125.45c0,.92-.75,1.67-1.67,1.67s-1.67-.75-1.67-1.67.75-1.67,1.67-1.67,1.67.75,1.67,1.67h0Z"/>
      <path class="cls-1" d="M71.37,125.45c0,.92-.75,1.67-1.67,1.67s-1.67-.75-1.67-1.67.75-1.67,1.67-1.67,1.67.75,1.67,1.67h0Z"/>
      <path class="cls-1" d="M82.52,125.45c0,.92-.75,1.67-1.67,1.67s-1.67-.75-1.67-1.67.75-1.67,1.67-1.67,1.67.75,1.67,1.67h0Z"/>
      <path class="cls-1" d="M93.67,125.45c0,.92-.75,1.67-1.67,1.67s-1.67-.75-1.67-1.67.75-1.67,1.67-1.67,1.67.75,1.67,1.67h0Z"/>
      <path class="cls-1" d="M99.25,125.45c0,.92-.75,1.67-1.67,1.67s-1.67-.75-1.67-1.67.75-1.67,1.67-1.67,1.67.75,1.67,1.67h0Z"/>
      <path class="cls-1" d="M104.82,125.45c0,.92-.75,1.67-1.67,1.67s-1.67-.75-1.67-1.67.75-1.67,1.67-1.67,1.67.75,1.67,1.67h0Z"/>
      <path class="cls-1" d="M110.4,125.45c0,.92-.75,1.67-1.67,1.67s-1.67-.75-1.67-1.67.75-1.67,1.67-1.67,1.67.75,1.67,1.67h0Z"/>
      <path class="cls-1" d="M127.13,125.45c0,.92-.75,1.67-1.67,1.67s-1.67-.75-1.67-1.67.75-1.67,1.67-1.67,1.67.75,1.67,1.67h0Z"/>
      <path class="cls-1" d="M132.7,125.45c0,.92-.75,1.67-1.67,1.67s-1.67-.75-1.67-1.67.75-1.67,1.67-1.67,1.67.75,1.67,1.67h0Z"/>
      <path class="cls-1" d="M138.28,125.45c0,.92-.75,1.67-1.67,1.67s-1.67-.75-1.67-1.67.75-1.67,1.67-1.67,1.67.75,1.67,1.67h0Z"/>
      <path class="cls-1" d="M143.85,125.45c0,.92-.75,1.67-1.67,1.67s-1.67-.75-1.67-1.67.75-1.67,1.67-1.67,1.67.75,1.67,1.67h0Z"/>
      <path class="cls-1" d="M149.43,125.45c0,.92-.75,1.67-1.67,1.67s-1.67-.75-1.67-1.67.75-1.67,1.67-1.67,1.67.75,1.67,1.67h0Z"/>
      <path class="cls-1" d="M160.58,125.45c0,.92-.75,1.67-1.67,1.67s-1.67-.75-1.67-1.67.75-1.67,1.67-1.67,1.67.75,1.67,1.67h0Z"/>
      <path class="cls-1" d="M166.16,125.45c0,.92-.75,1.67-1.67,1.67s-1.67-.75-1.67-1.67.75-1.67,1.67-1.67,1.67.75,1.67,1.67h0Z"/>
      <path class="cls-1" d="M171.73,125.45c0,.92-.75,1.67-1.67,1.67s-1.67-.75-1.67-1.67.75-1.67,1.67-1.67,1.67.75,1.67,1.67h0Z"/>
      <path class="cls-1" d="M60.22,131.03c0,.92-.75,1.67-1.67,1.67s-1.67-.75-1.67-1.67.75-1.67,1.67-1.67,1.67.75,1.67,1.67h0Z"/>
      <path class="cls-1" d="M65.79,131.03c0,.92-.75,1.67-1.67,1.67s-1.67-.75-1.67-1.67.75-1.67,1.67-1.67,1.67.75,1.67,1.67h0Z"/>
      <path class="cls-1" d="M93.67,131.03c0,.92-.75,1.67-1.67,1.67s-1.67-.75-1.67-1.67.75-1.67,1.67-1.67,1.67.75,1.67,1.67h0Z"/>
      <path class="cls-1" d="M99.25,131.03c0,.92-.75,1.67-1.67,1.67s-1.67-.75-1.67-1.67.75-1.67,1.67-1.67,1.67.75,1.67,1.67h0Z"/>
      <path class="cls-1" d="M115.98,131.03c0,.92-.75,1.67-1.67,1.67s-1.67-.75-1.67-1.67.75-1.67,1.67-1.67,1.67.75,1.67,1.67h0Z"/>
      <path class="cls-1" d="M121.55,131.03c0,.92-.75,1.67-1.67,1.67s-1.67-.75-1.67-1.67.75-1.67,1.67-1.67,1.67.75,1.67,1.67h0Z"/>
      <path class="cls-1" d="M127.13,131.03c0,.92-.75,1.67-1.67,1.67s-1.67-.75-1.67-1.67.75-1.67,1.67-1.67,1.67.75,1.67,1.67h0Z"/>
      <path class="cls-1" d="M149.43,131.03c0,.92-.75,1.67-1.67,1.67s-1.67-.75-1.67-1.67.75-1.67,1.67-1.67,1.67.75,1.67,1.67h0Z"/>
      <path class="cls-1" d="M155.01,131.03c0,.92-.75,1.67-1.67,1.67s-1.67-.75-1.67-1.67.75-1.67,1.67-1.67,1.67.75,1.67,1.67h0Z"/>
      <path class="cls-1" d="M65.79,136.61c0,.92-.75,1.67-1.67,1.67s-1.67-.75-1.67-1.67.75-1.67,1.67-1.67,1.67.75,1.67,1.67h0Z"/>
      <path class="cls-1" d="M76.95,136.61c0,.92-.75,1.67-1.67,1.67s-1.67-.75-1.67-1.67.75-1.67,1.67-1.67,1.67.75,1.67,1.67h0Z"/>
      <path class="cls-1" d="M82.52,136.61c0,.92-.75,1.67-1.67,1.67s-1.67-.75-1.67-1.67.75-1.67,1.67-1.67,1.67.75,1.67,1.67h0Z"/>
      <path class="cls-1" d="M99.25,136.61c0,.92-.75,1.67-1.67,1.67s-1.67-.75-1.67-1.67.75-1.67,1.67-1.67,1.67.75,1.67,1.67h0Z"/>
      <path class="cls-1" d="M110.4,136.61c0,.92-.75,1.67-1.67,1.67s-1.67-.75-1.67-1.67.75-1.67,1.67-1.67,1.67.75,1.67,1.67h0Z"/>
      <path class="cls-1" d="M115.98,136.61c0,.92-.75,1.67-1.67,1.67s-1.67-.75-1.67-1.67.75-1.67,1.67-1.67,1.67.75,1.67,1.67h0Z"/>
      <path class="cls-1" d="M121.55,136.61c0,.92-.75,1.67-1.67,1.67s-1.67-.75-1.67-1.67.75-1.67,1.67-1.67,1.67.75,1.67,1.67h0Z"/>
      <path class="cls-1" d="M127.13,136.61c0,.92-.75,1.67-1.67,1.67s-1.67-.75-1.67-1.67.75-1.67,1.67-1.67,1.67.75,1.67,1.67h0Z"/>
      <path class="cls-1" d="M138.28,136.61c0,.92-.75,1.67-1.67,1.67s-1.67-.75-1.67-1.67.75-1.67,1.67-1.67,1.67.75,1.67,1.67h0Z"/>
      <path class="cls-1" d="M149.43,136.61c0,.92-.75,1.67-1.67,1.67s-1.67-.75-1.67-1.67.75-1.67,1.67-1.67,1.67.75,1.67,1.67h0Z"/>
      <path class="cls-1" d="M155.01,136.61c0,.92-.75,1.67-1.67,1.67s-1.67-.75-1.67-1.67.75-1.67,1.67-1.67,1.67.75,1.67,1.67h0Z"/>
      <path class="cls-1" d="M160.58,136.61c0,.92-.75,1.67-1.67,1.67s-1.67-.75-1.67-1.67.75-1.67,1.67-1.67,1.67.75,1.67,1.67h0Z"/>
      <path class="cls-1" d="M65.79,142.18c0,.92-.75,1.67-1.67,1.67s-1.67-.75-1.67-1.67.75-1.67,1.67-1.67,1.67.75,1.67,1.67h0Z"/>
      <path class="cls-1" d="M71.37,142.18c0,.92-.75,1.67-1.67,1.67s-1.67-.75-1.67-1.67.75-1.67,1.67-1.67,1.67.75,1.67,1.67h0Z"/>
      <path class="cls-1" d="M82.52,142.18c0,.92-.75,1.67-1.67,1.67s-1.67-.75-1.67-1.67.75-1.67,1.67-1.67,1.67.75,1.67,1.67h0Z"/>
      <path class="cls-1" d="M93.67,142.18c0,.92-.75,1.67-1.67,1.67s-1.67-.75-1.67-1.67.75-1.67,1.67-1.67,1.67.75,1.67,1.67h0Z"/>
      <path class="cls-1" d="M99.25,142.18c0,.92-.75,1.67-1.67,1.67s-1.67-.75-1.67-1.67.75-1.67,1.67-1.67,1.67.75,1.67,1.67h0Z"/>
      <path class="cls-1" d="M104.82,142.18c0,.92-.75,1.67-1.67,1.67s-1.67-.75-1.67-1.67.75-1.67,1.67-1.67,1.67.75,1.67,1.67h0Z"/>
      <path class="cls-1" d="M121.55,142.18c0,.92-.75,1.67-1.67,1.67s-1.67-.75-1.67-1.67.75-1.67,1.67-1.67,1.67.75,1.67,1.67h0Z"/>
      <path class="cls-1" d="M127.13,142.18c0,.92-.75,1.67-1.67,1.67s-1.67-.75-1.67-1.67.75-1.67,1.67-1.67,1.67.75,1.67,1.67h0Z"/>
      <path class="cls-1" d="M149.43,142.18c0,.92-.75,1.67-1.67,1.67s-1.67-.75-1.67-1.67.75-1.67,1.67-1.67,1.67.75,1.67,1.67h0Z"/>
      <path class="cls-1" d="M155.01,142.18c0,.92-.75,1.67-1.67,1.67s-1.67-.75-1.67-1.67.75-1.67,1.67-1.67,1.67.75,1.67,1.67h0Z"/>
      <path class="cls-1" d="M171.73,142.18c0,.92-.75,1.67-1.67,1.67s-1.67-.75-1.67-1.67.75-1.67,1.67-1.67,1.67.75,1.67,1.67h0Z"/>
      <path class="cls-1" d="M82.52,147.76c0,.92-.75,1.67-1.67,1.67s-1.67-.75-1.67-1.67.75-1.67,1.67-1.67,1.67.75,1.67,1.67h0Z"/>
      <path class="cls-1" d="M88.1,147.76c0,.92-.75,1.67-1.67,1.67s-1.67-.75-1.67-1.67.75-1.67,1.67-1.67,1.67.75,1.67,1.67h0Z"/>
      <path class="cls-1" d="M93.67,147.76c0,.92-.75,1.67-1.67,1.67s-1.67-.75-1.67-1.67.75-1.67,1.67-1.67,1.67.75,1.67,1.67h0Z"/>
      <path class="cls-1" d="M104.82,147.76c0,.92-.75,1.67-1.67,1.67s-1.67-.75-1.67-1.67.75-1.67,1.67-1.67,1.67.75,1.67,1.67h0Z"/>
      <path class="cls-1" d="M121.55,147.76c0,.92-.75,1.67-1.67,1.67s-1.67-.75-1.67-1.67.75-1.67,1.67-1.67,1.67.75,1.67,1.67h0Z"/>
      <path class="cls-1" d="M127.13,147.76c0,.92-.75,1.67-1.67,1.67s-1.67-.75-1.67-1.67.75-1.67,1.67-1.67,1.67.75,1.67,1.67h0Z"/>
      <path class="cls-1" d="M132.7,147.76c0,.92-.75,1.67-1.67,1.67s-1.67-.75-1.67-1.67.75-1.67,1.67-1.67,1.67.75,1.67,1.67h0Z"/>
      <path class="cls-1" d="M138.28,147.76c0,.92-.75,1.67-1.67,1.67s-1.67-.75-1.67-1.67.75-1.67,1.67-1.67,1.67.75,1.67,1.67h0Z"/>
      <path class="cls-1" d="M143.85,147.76c0,.92-.75,1.67-1.67,1.67s-1.67-.75-1.67-1.67.75-1.67,1.67-1.67,1.67.75,1.67,1.67h0Z"/>
      <path class="cls-1" d="M149.43,147.76c0,.92-.75,1.67-1.67,1.67s-1.67-.75-1.67-1.67.75-1.67,1.67-1.67,1.67.75,1.67,1.67h0Z"/>
      <path class="cls-1" d="M166.16,147.76c0,.92-.75,1.67-1.67,1.67s-1.67-.75-1.67-1.67.75-1.67,1.67-1.67,1.67.75,1.67,1.67h0Z"/>
      <path class="cls-1" d="M171.73,147.76c0,.92-.75,1.67-1.67,1.67s-1.67-.75-1.67-1.67.75-1.67,1.67-1.67,1.67.75,1.67,1.67h0Z"/>
      <path class="cls-1" d="M65.79,153.33c0,.92-.75,1.67-1.67,1.67s-1.67-.75-1.67-1.67.75-1.67,1.67-1.67,1.67.75,1.67,1.67h0Z"/>
      <path class="cls-1" d="M71.37,153.33c0,.92-.75,1.67-1.67,1.67s-1.67-.75-1.67-1.67.75-1.67,1.67-1.67,1.67.75,1.67,1.67h0Z"/>
      <path class="cls-1" d="M82.52,153.33c0,.92-.75,1.67-1.67,1.67s-1.67-.75-1.67-1.67.75-1.67,1.67-1.67,1.67.75,1.67,1.67h0Z"/>
      <path class="cls-1" d="M93.67,153.33c0,.92-.75,1.67-1.67,1.67s-1.67-.75-1.67-1.67.75-1.67,1.67-1.67,1.67.75,1.67,1.67h0Z"/>
      <path class="cls-1" d="M99.25,153.33c0,.92-.75,1.67-1.67,1.67s-1.67-.75-1.67-1.67.75-1.67,1.67-1.67,1.67.75,1.67,1.67h0Z"/>
      <path class="cls-1" d="M110.4,153.33c0,.92-.75,1.67-1.67,1.67s-1.67-.75-1.67-1.67.75-1.67,1.67-1.67,1.67.75,1.67,1.67h0Z"/>
      <path class="cls-1" d="M115.98,153.33c0,.92-.75,1.67-1.67,1.67s-1.67-.75-1.67-1.67.75-1.67,1.67-1.67,1.67.75,1.67,1.67h0Z"/>
      <path class="cls-1" d="M121.55,153.33c0,.92-.75,1.67-1.67,1.67s-1.67-.75-1.67-1.67.75-1.67,1.67-1.67,1.67.75,1.67,1.67h0Z"/>
      <path class="cls-1" d="M132.7,153.33c0,.92-.75,1.67-1.67,1.67s-1.67-.75-1.67-1.67.75-1.67,1.67-1.67,1.67.75,1.67,1.67h0Z"/>
      <path class="cls-1" d="M143.85,153.33c0,.92-.75,1.67-1.67,1.67s-1.67-.75-1.67-1.67.75-1.67,1.67-1.67,1.67.75,1.67,1.67h0Z"/>
      <path class="cls-1" d="M155.01,153.33c0,.92-.75,1.67-1.67,1.67s-1.67-.75-1.67-1.67.75-1.67,1.67-1.67,1.67.75,1.67,1.67h0Z"/>
      <path class="cls-1" d="M171.73,153.33c0,.92-.75,1.67-1.67,1.67s-1.67-.75-1.67-1.67.75-1.67,1.67-1.67,1.67.75,1.67,1.67h0Z"/>
      <path class="cls-1" d="M76.95,158.91c0,.92-.75,1.67-1.67,1.67s-1.67-.75-1.67-1.67.75-1.67,1.67-1.67,1.67.75,1.67,1.67h0Z"/>
      <path class="cls-1" d="M82.52,158.91c0,.92-.75,1.67-1.67,1.67s-1.67-.75-1.67-1.67.75-1.67,1.67-1.67,1.67.75,1.67,1.67h0Z"/>
      <path class="cls-1" d="M93.67,158.91c0,.92-.75,1.67-1.67,1.67s-1.67-.75-1.67-1.67.75-1.67,1.67-1.67,1.67.75,1.67,1.67h0Z"/>
      <path class="cls-1" d="M99.25,158.91c0,.92-.75,1.67-1.67,1.67s-1.67-.75-1.67-1.67.75-1.67,1.67-1.67,1.67.75,1.67,1.67h0Z"/>
      <path class="cls-1" d="M104.82,158.91c0,.92-.75,1.67-1.67,1.67s-1.67-.75-1.67-1.67.75-1.67,1.67-1.67,1.67.75,1.67,1.67h0Z"/>
      <path class="cls-1" d="M110.4,158.91c0,.92-.75,1.67-1.67,1.67s-1.67-.75-1.67-1.67.75-1.67,1.67-1.67,1.67.75,1.67,1.67h0Z"/>
      <path class="cls-1" d="M121.55,158.91c0,.92-.75,1.67-1.67,1.67s-1.67-.75-1.67-1.67.75-1.67,1.67-1.67,1.67.75,1.67,1.67h0Z"/>
      <path class="cls-1" d="M127.13,158.91c0,.92-.75,1.67-1.67,1.67s-1.67-.75-1.67-1.67.75-1.67,1.67-1.67,1.67.75,1.67,1.67h0Z"/>
      <path class="cls-1" d="M132.7,158.91c0,.92-.75,1.67-1.67,1.67s-1.67-.75-1.67-1.67.75-1.67,1.67-1.67,1.67.75,1.67,1.67h0Z"/>
      <path class="cls-1" d="M138.28,158.91c0,.92-.75,1.67-1.67,1.67s-1.67-.75-1.67-1.67.75-1.67,1.67-1.67,1.67.75,1.67,1.67h0Z"/>
      <path class="cls-1" d="M143.85,158.91c0,.92-.75,1.67-1.67,1.67s-1.67-.75-1.67-1.67.75-1.67,1.67-1.67,1.67.75,1.67,1.67h0Z"/>
      <path class="cls-1" d="M149.43,158.91c0,.92-.75,1.67-1.67,1.67s-1.67-.75-1.67-1.67.75-1.67,1.67-1.67,1.67.75,1.67,1.67h0Z"/>
      <path class="cls-1" d="M155.01,158.91c0,.92-.75,1.67-1.67,1.67s-1.67-.75-1.67-1.67.75-1.67,1.67-1.67,1.67.75,1.67,1.67h0Z"/>
      <path class="cls-1" d="M160.58,158.91c0,.92-.75,1.67-1.67,1.67s-1.67-.75-1.67-1.67.75-1.67,1.67-1.67,1.67.75,1.67,1.67h0Z"/>
      <path class="cls-1" d="M166.16,158.91c0,.92-.75,1.67-1.67,1.67s-1.67-.75-1.67-1.67.75-1.67,1.67-1.67,1.67.75,1.67,1.67h0Z"/>
      <path class="cls-1" d="M65.79,164.48c0,.92-.75,1.67-1.67,1.67s-1.67-.75-1.67-1.67.75-1.67,1.67-1.67,1.67.75,1.67,1.67h0Z"/>
      <path class="cls-1" d="M71.37,164.48c0,.92-.75,1.67-1.67,1.67s-1.67-.75-1.67-1.67.75-1.67,1.67-1.67,1.67.75,1.67,1.67h0Z"/>
      <path class="cls-1" d="M76.95,164.48c0,.92-.75,1.67-1.67,1.67s-1.67-.75-1.67-1.67.75-1.67,1.67-1.67,1.67.75,1.67,1.67h0Z"/>
      <path class="cls-1" d="M82.52,164.48c0,.92-.75,1.67-1.67,1.67s-1.67-.75-1.67-1.67.75-1.67,1.67-1.67,1.67.75,1.67,1.67h0Z"/>
      <path class="cls-1" d="M132.7,164.48c0,.92-.75,1.67-1.67,1.67s-1.67-.75-1.67-1.67.75-1.67,1.67-1.67,1.67.75,1.67,1.67h0Z"/>
      <path class="cls-1" d="M138.28,164.48c0,.92-.75,1.67-1.67,1.67s-1.67-.75-1.67-1.67.75-1.67,1.67-1.67,1.67.75,1.67,1.67h0Z"/>
      <path class="cls-1" d="M143.85,164.48c0,.92-.75,1.67-1.67,1.67s-1.67-.75-1.67-1.67.75-1.67,1.67-1.67,1.67.75,1.67,1.67h0Z"/>
      <path class="cls-1" d="M155.01,164.48c0,.92-.75,1.67-1.67,1.67s-1.67-.75-1.67-1.67.75-1.67,1.67-1.67,1.67.75,1.67,1.67h0Z"/>
      <path class="cls-1" d="M160.58,164.48c0,.92-.75,1.67-1.67,1.67s-1.67-.75-1.67-1.67.75-1.67,1.67-1.67,1.67.75,1.67,1.67h0Z"/>
      <path class="cls-1" d="M171.73,164.48c0,.92-.75,1.67-1.67,1.67s-1.67-.75-1.67-1.67.75-1.67,1.67-1.67,1.67.75,1.67,1.67h0Z"/>
      <path class="cls-1" d="M60.22,170.06c0,.92-.75,1.67-1.67,1.67s-1.67-.75-1.67-1.67.75-1.67,1.67-1.67,1.67.75,1.67,1.67h0Z"/>
      <path class="cls-1" d="M76.95,170.06c0,.92-.75,1.67-1.67,1.67s-1.67-.75-1.67-1.67.75-1.67,1.67-1.67,1.67.75,1.67,1.67h0Z"/>
      <path class="cls-1" d="M82.52,170.06c0,.92-.75,1.67-1.67,1.67s-1.67-.75-1.67-1.67.75-1.67,1.67-1.67,1.67.75,1.67,1.67h0Z"/>
      <path class="cls-1" d="M88.1,170.06c0,.92-.75,1.67-1.67,1.67s-1.67-.75-1.67-1.67.75-1.67,1.67-1.67,1.67.75,1.67,1.67h0Z"/>
      <path class="cls-1" d="M93.67,170.06c0,.92-.75,1.67-1.67,1.67s-1.67-.75-1.67-1.67.75-1.67,1.67-1.67,1.67.75,1.67,1.67h0Z"/>
      <path class="cls-1" d="M110.4,170.06c0,.92-.75,1.67-1.67,1.67s-1.67-.75-1.67-1.67.75-1.67,1.67-1.67,1.67.75,1.67,1.67h0Z"/>
      <path class="cls-1" d="M143.85,170.06c0,.92-.75,1.67-1.67,1.67s-1.67-.75-1.67-1.67.75-1.67,1.67-1.67,1.67.75,1.67,1.67h0Z"/>
      <path class="cls-1" d="M149.43,170.06c0,.92-.75,1.67-1.67,1.67s-1.67-.75-1.67-1.67.75-1.67,1.67-1.67,1.67.75,1.67,1.67h0Z"/>
      <path class="cls-1" d="M155.01,170.06c0,.92-.75,1.67-1.67,1.67s-1.67-.75-1.67-1.67.75-1.67,1.67-1.67,1.67.75,1.67,1.67h0Z"/>
      <path class="cls-1" d="M160.58,170.06c0,.92-.75,1.67-1.67,1.67s-1.67-.75-1.67-1.67.75-1.67,1.67-1.67,1.67.75,1.67,1.67h0Z"/>
      <path class="cls-1" d="M36.86,11.15h-12.38c-6.03,0-11.14,3.99-12.78,9.43-.17.56-.3,1.14-.39,1.73-.1.65-.15,1.32-.15,2v12.67c0,7.27,5.98,13.18,13.33,13.18h6.19s6.19,0,6.19,0c7.35,0,13.33-5.91,13.33-13.18v-12.67c0-7.26-5.98-13.17-13.33-13.17h0ZM44.33,37c0,4.04-3.35,7.32-7.47,7.32h-6.19s-6.19,0-6.19,0c-4.12,0-7.47-3.28-7.47-7.32v-12.67c0-1.26.33-2.45.9-3.49.55-1,1.34-1.86,2.28-2.51,1.21-.84,2.69-1.33,4.28-1.33h12.38c4.12,0,7.47,3.28,7.47,7.32v12.67Z"/>
      <path class="cls-1" d="M159.52,11.15h-12.38c-6.03,0-11.14,3.99-12.78,9.43-.17.56-.3,1.14-.39,1.73-.1.65-.15,1.32-.15,2v12.67c0,7.27,5.98,13.18,13.33,13.18h6.19s6.19,0,6.19,0c7.35,0,13.33-5.91,13.33-13.18v-12.67c0-7.26-5.98-13.17-13.33-13.17h0ZM166.99,37c0,4.04-3.35,7.32-7.47,7.32h-6.19s-6.19,0-6.19,0c-4.12,0-7.47-3.28-7.47-7.32v-12.67c0-1.26.33-2.45.9-3.49.55-1,1.34-1.86,2.28-2.51,1.21-.84,2.69-1.33,4.28-1.33h12.38c4.12,0,7.47,3.28,7.47,7.32v12.67Z"/>
      <path class="cls-1" d="M36.86,133.82h-12.38c-6.03,0-11.14,3.99-12.78,9.43-.17.56-.3,1.14-.39,1.73-.1.65-.15,1.32-.15,2v12.67c0,7.27,5.98,13.18,13.33,13.18h6.19s6.19,0,6.19,0c7.35,0,13.33-5.91,13.33-13.18v-12.67c0-7.26-5.98-13.17-13.33-13.17h0ZM44.33,159.67c0,4.04-3.35,7.32-7.47,7.32h-6.19s-6.19,0-6.19,0c-4.12,0-7.47-3.28-7.47-7.32v-12.67c0-1.26.33-2.45.9-3.49.55-1,1.34-1.86,2.28-2.51,1.21-.84,2.69-1.33,4.28-1.33h12.38c4.12,0,7.47,3.28,7.47,7.32v12.67Z"/>
      <path class="cls-1" d="M38.7,30.5c0,4.53-3.67,8.2-8.2,8.2s-8.2-3.67-8.2-8.2,3.67-8.2,8.2-8.2,8.2,3.67,8.2,8.2h0Z"/>
      <path class="cls-1" d="M161.37,30.5c0,4.53-3.67,8.2-8.2,8.2s-8.2-3.67-8.2-8.2,3.67-8.2,8.2-8.2,8.2,3.67,8.2,8.2h0Z"/>
      <path class="cls-1" d="M38.7,153.17c0,4.53-3.67,8.2-8.2,8.2s-8.2-3.67-8.2-8.2,3.67-8.2,8.2-8.2,8.2,3.67,8.2,8.2h0Z"/>
    </g>
  </g>
</svg>