<?xml version="1.0" encoding="UTF-8"?>
<svg id="Layer_2" data-name="Layer 2" xmlns="http://www.w3.org/2000/svg" viewBox="0 0 243.39 274.86">
  <defs>
    <style>
      .cls-1 {
        fill: #fff;
        stroke-width: 0px;
      }
    </style>
  </defs>
  <g id="Layer_1-2" data-name="Layer 1">
    <g>
      <g>
        <rect class="cls-1" x="115.08" y="0" width="13.23" height="48.34" rx="6.61" ry="6.61"/>
        <g>
          <rect class="cls-1" x="41.09" y="14.93" width="13.23" height="48.34" rx="6.61" ry="6.61" transform="translate(-13.96 40.35) rotate(-40.5)"/>
          <rect class="cls-1" x="171.51" y="32.48" width="48.34" height="13.23" rx="6.61" ry="6.61" transform="translate(38.86 162.5) rotate(-49.5)"/>
        </g>
      </g>
      <path class="cls-1" d="M237.88,106.41l-29.59-33.82h-51.82s-34.38,0-34.38,0h-35.18s-51.82,0-51.82,0L5.51,106.41l-5.51,6.3,5.2,6.93,108.95,145.16,7.55,10.06,7.55-10.06,108.95-145.16,5.2-6.93-5.51-6.3ZM202.29,85.82l18.01,20.59h-42.83l-12.78-20.59h37.6ZM121.3,85.82h27.82l12.78,20.59h-80.41l12.78-20.59h27.02ZM41.1,85.82h37.6l-12.78,20.59H23.09l18.01-20.59ZM21.74,119.64h35.96,0s7.19,0,7.19,0l37.07,106.89L21.74,119.64ZM121.69,243.04l-42.8-123.4h85.6l-42.8,123.4ZM141.42,226.53l37.07-106.89h7.19,0s35.96,0,35.96,0l-80.22,106.89Z"/>
    </g>
  </g>
</svg>