<?xml version="1.0" encoding="UTF-8"?>
<svg id="Layer_2" data-name="Layer 2" xmlns="http://www.w3.org/2000/svg" viewBox="0 0 274.01 279.5">
  <defs>
    <style>
      .cls-1 {
        fill: #efeff6;
        stroke-width: 0px;
      }
    </style>
  </defs>
  <g id="Layer_1-2" data-name="Layer 1">
    <g>
      <path class="cls-1" d="M137,209.31c-44.61,0-78.85-14.99-95.3-23.92C21.55,174.44,0,157.09,0,141.24s21.55-33.2,41.71-44.15c16.44-8.93,50.68-23.92,95.3-23.92s78.85,14.99,95.3,23.92c20.16,10.95,41.71,28.31,41.71,44.15s-21.54,33.2-41.71,44.15c-16.44,8.93-50.68,23.92-95.3,23.92ZM137,86.93c-41.57,0-73.43,13.94-88.73,22.25-23.81,12.94-34.52,26.54-34.52,32.06s10.71,19.13,34.52,32.06c15.29,8.31,47.16,22.25,88.73,22.25s73.43-13.94,88.73-22.25c23.81-12.94,34.52-26.54,34.52-32.06s-10.71-19.13-34.52-32.06c-15.29-8.31-47.16-22.25-88.73-22.25Z"/>
      <path class="cls-1" d="M137,205.49c-35.43,0-64.25-28.82-64.25-64.25s28.82-64.25,64.25-64.25,64.25,28.82,64.25,64.25-28.82,64.25-64.25,64.25ZM137,90.75c-27.84,0-50.49,22.65-50.49,50.49s22.65,50.49,50.49,50.49,50.49-22.65,50.49-50.49-22.65-50.49-50.49-50.49Z"/>
      <circle class="cls-1" cx="137" cy="141.24" r="23.54"/>
      <g>
        <rect class="cls-1" x="127.37" y="0" width="13.76" height="48.34" rx="6.88" ry="6.88"/>
        <g>
          <rect class="cls-1" x="24.57" y="27.62" width="13.76" height="48.34" rx="6.88" ry="6.88" transform="translate(-26.1 32.83) rotate(-40.5)"/>
          <rect class="cls-1" x="212.88" y="44.92" width="48.34" height="13.76" rx="6.88" ry="6.88" transform="translate(43.71 198.41) rotate(-49.5)"/>
        </g>
      </g>
      <g>
        <rect class="cls-1" x="127.37" y="231.16" width="13.76" height="48.34" rx="6.88" ry="6.88"/>
        <g>
          <rect class="cls-1" x="230.17" y="203.54" width="13.76" height="48.34" rx="6.88" ry="6.88" transform="translate(-91.09 208.51) rotate(-40.5)"/>
          <rect class="cls-1" x="7.27" y="220.83" width="48.34" height="13.76" rx="6.88" ry="6.88" transform="translate(-162.13 103.74) rotate(-49.5)"/>
        </g>
      </g>
    </g>
  </g>
</svg>